<svg width="17" height="18" viewBox="0 0 17 18" fill="none" xmlns="http://www.w3.org/2000/svg">
<path fill-rule="evenodd" clip-rule="evenodd" d="M1.8 0C1.30295 0 0.9 0.402948 0.9 0.9V17.1H0.45C0.201474 17.1 0 17.3015 0 17.55C0 17.7985 0.201474 18 0.45 18H4.05V15.3C4.05 14.8029 4.45295 14.4 4.95 14.4H6.75C7.24707 14.4 7.65 14.8029 7.65 15.3V18H15.75C15.9985 18 16.2 17.7985 16.2 17.55C16.2 17.3015 15.9985 17.1 15.75 17.1H15.3V3.6C15.3 3.10295 14.8971 2.7 14.4 2.7H10.8V0.9C10.8 0.402948 10.3971 0 9.9 0H1.8ZM4.05 2.7C3.80147 2.7 3.6 2.90147 3.6 3.15V4.05C3.6 4.29853 3.80147 4.5 4.05 4.5H4.95C5.19853 4.5 5.4 4.29853 5.4 4.05V3.15C5.4 2.90147 5.19853 2.7 4.95 2.7H4.05ZM3.6 5.85C3.6 5.60147 3.80147 5.4 4.05 5.4H4.95C5.19853 5.4 5.4 5.60147 5.4 5.85V6.75C5.4 6.99853 5.19853 7.2 4.95 7.2H4.05C3.80147 7.2 3.6 6.99853 3.6 6.75V5.85ZM4.05 8.1C3.80147 8.1 3.6 8.30151 3.6 8.55V9.45C3.6 9.69849 3.80147 9.9 4.05 9.9H4.95C5.19853 9.9 5.4 9.69849 5.4 9.45V8.55C5.4 8.30151 5.19853 8.1 4.95 8.1H4.05ZM3.6 11.25C3.6 11.0015 3.80147 10.8 4.05 10.8H4.95C5.19853 10.8 5.4 11.0015 5.4 11.25V12.15C5.4 12.3985 5.19853 12.6 4.95 12.6H4.05C3.80147 12.6 3.6 12.3985 3.6 12.15V11.25ZM6.75 2.7C6.50151 2.7 6.3 2.90147 6.3 3.15V4.05C6.3 4.29853 6.50151 4.5 6.75 4.5H7.65C7.89849 4.5 8.1 4.29853 8.1 4.05V3.15C8.1 2.90147 7.89849 2.7 7.65 2.7H6.75ZM11.7 5.85C11.7 5.60147 11.9015 5.4 12.15 5.4H13.05C13.2985 5.4 13.5 5.60147 13.5 5.85V6.75C13.5 6.99853 13.2985 7.2 13.05 7.2H12.15C11.9015 7.2 11.7 6.99853 11.7 6.75V5.85ZM12.15 8.1C11.9015 8.1 11.7 8.30151 11.7 8.55V9.45C11.7 9.69849 11.9015 9.9 12.15 9.9H13.05C13.2985 9.9 13.5 9.69849 13.5 9.45V8.55C13.5 8.30151 13.2985 8.1 13.05 8.1H12.15ZM11.7 11.25C11.7 11.0015 11.9015 10.8 12.15 10.8H13.05C13.2985 10.8 13.5 11.0015 13.5 11.25V12.15C13.5 12.3985 13.2985 12.6 13.05 12.6H12.15C11.9015 12.6 11.7 12.3985 11.7 12.15V11.25ZM12.15 13.5C11.9015 13.5 11.7 13.7015 11.7 13.95V14.85C11.7 15.0985 11.9015 15.3 12.15 15.3H13.05C13.2985 15.3 13.5 15.0985 13.5 14.85V13.95C13.5 13.7015 13.2985 13.5 13.05 13.5H12.15ZM6.3 5.85C6.3 5.60147 6.50151 5.4 6.75 5.4H7.65C7.89849 5.4 8.1 5.60147 8.1 5.85V6.75C8.1 6.99853 7.89849 7.2 7.65 7.2H6.75C6.50151 7.2 6.3 6.99853 6.3 6.75V5.85ZM6.75 8.1C6.50151 8.1 6.3 8.30151 6.3 8.55V9.45C6.3 9.69849 6.50151 9.9 6.75 9.9H7.65C7.89849 9.9 8.1 9.69849 8.1 9.45V8.55C8.1 8.30151 7.89849 8.1 7.65 8.1H6.75ZM6.3 11.25C6.3 11.0015 6.50151 10.8 6.75 10.8H7.65C7.89849 10.8 8.1 11.0015 8.1 11.25V12.15C8.1 12.3985 7.89849 12.6 7.65 12.6H6.75C6.50151 12.6 6.3 12.3985 6.3 12.15V11.25Z" fill="#272727"/>
<path d="M6.74922 17.9969V15.2969H4.94922V17.9969H6.74922Z" fill="#272727"/>
</svg>
