<svg width="77" height="13" viewBox="0 0 77 13" fill="none" xmlns="http://www.w3.org/2000/svg">
<path d="M9.01363 8.23928C9.01363 5.76221 7.43731 3.88565 5.33556 3.88565C4.28469 3.88565 3.75925 4.1859 3.38393 4.56121V1.70883C3.38393 1.03327 2.8585 0.432771 2.18293 0.432771C1.50737 0.432771 0.981934 0.958206 0.981934 1.70883V11.2418C0.981934 11.9173 1.50737 12.5178 2.18293 12.5178C2.78343 12.5178 3.15875 12.1425 3.30887 11.7672C3.83431 12.4428 4.43481 12.668 5.33556 12.668C7.43731 12.668 9.01363 10.7163 9.01363 8.23928ZM6.61162 8.08915V8.31434C6.61162 9.74053 5.861 10.7163 4.96025 10.7163C4.0595 10.7163 3.38393 10.1158 3.38393 8.53953V7.93903C3.38393 6.81309 3.90937 5.83727 4.96025 5.83727C5.78594 5.76221 6.61162 6.51283 6.61162 8.08915ZM17.871 11.2418V5.31184C17.871 4.63627 17.3456 4.03578 16.67 4.03578C16.0695 4.03578 15.6942 4.41109 15.5441 4.7864C15.0186 4.11084 14.4181 3.88565 13.5174 3.88565C11.4156 3.88565 9.83931 5.83728 9.83931 8.23928C9.83931 10.7163 11.4156 12.5929 13.5174 12.5929C14.4181 12.5929 15.0186 12.2927 15.5441 11.6922C15.6942 12.0675 16.0695 12.4428 16.67 12.4428C17.4206 12.5178 17.871 11.9173 17.871 11.2418ZM15.469 8.53953C15.469 9.81559 14.8685 10.5662 13.8927 10.5662C12.9919 10.5662 12.2413 9.74053 12.2413 8.16422V7.86396C12.2413 6.36271 13.067 5.68715 13.9678 5.68715C15.2438 5.68715 15.5441 6.96321 15.5441 7.63877V8.53953H15.469ZM42.1162 11.2418V5.31184C42.1162 4.63627 41.5908 4.03578 40.9152 4.03578C40.3147 4.03578 39.9394 4.41109 39.7893 4.7864C39.2638 4.11084 38.6633 3.88565 37.7626 3.88565C35.6608 3.88565 34.0845 5.83728 34.0845 8.23928C34.0845 10.7163 35.6608 12.5929 37.7626 12.5929C38.6633 12.5929 39.2638 12.2927 39.7893 11.6922C39.9394 12.0675 40.3147 12.4428 40.9152 12.4428C41.5908 12.5178 42.1162 11.9173 42.1162 11.2418ZM39.7142 8.76471C39.7142 10.0408 38.8885 10.6413 38.1379 10.6413C37.2371 10.6413 36.4865 9.5904 36.4865 8.23928V8.01409C36.4865 6.43777 37.3122 5.76221 38.213 5.76221C39.414 5.76221 39.7893 6.81309 39.7893 7.63877V8.76471H39.7142ZM43.4673 11.2418C43.4673 11.9173 43.9928 12.5178 44.6683 12.5178C45.3439 12.5178 45.8693 11.9924 45.8693 11.2418V1.70883C45.8693 1.03327 45.3439 0.432771 44.6683 0.432771C43.9928 0.432771 43.4673 0.958206 43.4673 1.70883V11.2418ZM54.9519 11.2418V1.70883C54.9519 1.03327 54.4265 0.432771 53.7509 0.432771C53.0753 0.432771 52.5499 0.958206 52.5499 1.70883V4.56121C52.0995 4.1859 51.5741 3.88565 50.5983 3.88565C48.4965 3.88565 46.9202 5.83727 46.9202 8.31434C46.9202 10.7914 48.4965 12.668 50.5983 12.668C51.499 12.668 52.0995 12.3677 52.625 11.7672C52.7751 12.1425 53.1504 12.5178 53.7509 12.5178C54.5015 12.5178 54.9519 11.9173 54.9519 11.2418ZM52.625 8.76471C52.625 10.0408 51.7993 10.6413 51.0486 10.6413C50.0728 10.6413 49.3973 9.66546 49.3973 8.08915C49.3973 6.51283 50.223 5.83727 51.1237 5.83727C52.2497 5.83727 52.7 6.96321 52.7 7.63877V8.76471H52.625ZM62.5332 11.2418C62.5332 11.9173 63.0587 12.5178 63.7342 12.5178C64.4098 12.5178 64.9352 11.9924 64.9352 11.2418V5.31184C64.9352 4.63627 64.4098 4.03578 63.7342 4.03578C63.0587 4.03578 62.5332 4.56121 62.5332 5.31184V11.2418ZM73.6425 11.2418V6.73803C73.6425 4.71134 72.2913 3.88565 70.715 3.88565C69.8143 3.88565 69.1387 4.1859 68.6883 4.7864C68.5382 4.41109 68.1629 4.03578 67.4873 4.03578C66.8118 4.03578 66.2863 4.56121 66.2863 5.31184V11.2418C66.2863 11.9173 66.8118 12.5178 67.4873 12.5178C68.1629 12.5178 68.6883 11.9924 68.6883 11.2418V7.63877C68.6883 7.56371 68.6133 6.96321 68.9135 6.43777C69.439 5.53702 71.3155 5.68715 71.3155 6.88815V11.2418C71.3155 11.9173 71.841 12.5178 72.5165 12.5178C73.117 12.5178 73.6425 11.9173 73.6425 11.2418ZM62.5332 1.55871C62.5332 0.883146 63.0587 0.35771 63.7342 0.35771C64.4098 0.35771 64.9352 0.883146 64.9352 1.55871C64.9352 2.23427 64.4098 2.75971 63.7342 2.75971C63.0587 2.75971 62.5332 2.23427 62.5332 1.55871ZM33.409 5.16171C33.409 4.56121 32.9586 4.03578 32.283 4.03578C31.6825 4.03578 31.3823 4.48615 30.9319 4.86146L28.9803 6.81309V1.63377C28.9803 0.958209 28.4548 0.35771 27.7793 0.35771C27.1037 0.35771 26.5783 0.883145 26.5783 1.63377V8.83977C25.5274 9.74052 24.4014 10.6413 22.9753 10.4161C21.5491 10.266 21.1738 9.21509 21.1738 8.01409C21.1738 6.5879 21.8493 5.91233 22.675 5.83727C23.6508 5.76221 23.876 6.21259 24.4014 6.43777C25.002 6.73802 25.8276 6.21258 25.7526 5.46196C25.6775 4.26096 23.876 3.81058 22.8251 3.88565C20.4231 4.03577 18.7718 5.83728 18.7718 8.23928C18.7718 10.7163 20.3481 12.668 22.8251 12.5929C23.4256 12.5929 24.1763 12.4428 24.7768 12.2176C25.5274 11.9173 26.1279 11.467 26.5783 11.0166V11.2418C26.5783 11.9173 27.1037 12.2927 27.7793 12.2927C28.4548 12.2927 28.9803 11.7672 28.9803 11.0166V9.36522C29.2054 9.14003 29.3556 9.06497 29.5057 8.91484L31.3823 11.467C31.9077 12.1425 32.1329 12.2927 32.6583 12.2927C33.484 12.2927 33.8593 11.6171 33.8593 11.1667C33.8593 10.7914 33.5591 10.4161 33.2588 10.1158L31.2321 7.56371L32.5082 6.28765C33.1087 5.83728 33.409 5.61209 33.409 5.16171ZM61.6325 4.56121C61.4823 4.1859 60.8818 3.81058 60.2813 3.88565C59.6808 3.88565 59.0803 4.33603 58.705 4.7864C58.5549 4.41109 58.1796 4.03578 57.504 4.03578C56.8285 4.03578 56.303 4.56121 56.303 5.31184V11.2418C56.303 11.9173 56.8285 12.5178 57.504 12.5178C58.1796 12.5178 58.705 11.9924 58.705 11.2418V7.03828C58.705 6.88815 58.63 6.06246 59.831 6.28765C60.8818 6.51284 61.1821 6.36271 61.4823 5.9874C61.7826 5.61209 61.7826 5.01159 61.6325 4.56121ZM76.7951 2.00908C76.7951 1.10833 76.1195 0.432771 75.2188 0.432771C74.318 0.432771 73.6425 1.1834 73.6425 2.00908C73.6425 2.90983 74.318 3.5854 75.2188 3.5854C76.1195 3.5854 76.7951 2.90983 76.7951 2.00908ZM76.5699 2.00908C76.5699 2.75971 75.9694 3.36021 75.2188 3.36021C74.4682 3.36021 73.8677 2.75971 73.8677 2.00908C73.8677 1.25846 74.4682 0.657961 75.2188 0.657961C75.9694 0.657961 76.5699 1.25846 76.5699 2.00908Z" fill="#D1291C"/>
</svg>
