<svg width="19" height="19" viewBox="0 0 19 19" fill="none" xmlns="http://www.w3.org/2000/svg">
<path d="M14.3213 13.625C13.107 13.6238 12.1216 14.6075 12.1204 15.822C12.1192 17.0366 13.1027 18.0221 14.3171 18.0233C15.5315 18.0245 16.5169 17.0408 16.5181 15.8263C16.5181 15.8256 16.5181 15.8249 16.5181 15.8242C16.5169 14.6109 15.5344 13.6274 14.3213 13.625Z" fill="white"/>
<path d="M18.2212 3.07773C18.1686 3.06754 18.1151 3.06237 18.0615 3.06228H4.67336L4.46132 1.64353C4.32921 0.701319 3.52338 0.000289938 2.57206 0H0.848158C0.379725 0 0 0.379777 0 0.848276C0 1.31677 0.379725 1.69655 0.848158 1.69655H2.57417C2.68201 1.69576 2.77329 1.77608 2.78621 1.88319L4.09236 10.8367C4.27144 11.9744 5.24992 12.8138 6.40148 12.8175H15.2244C16.3331 12.8189 17.2896 12.0396 17.5124 10.9534L18.8927 4.07172C18.9817 3.61176 18.6811 3.16674 18.2212 3.07773Z" fill="white"/>
<path d="M8.93453 15.7279C8.88288 14.549 7.91007 13.6209 6.73014 13.625C5.51676 13.6741 4.57285 14.6976 4.62188 15.9112C4.66893 17.0756 5.61603 18.0011 6.78104 18.0212H6.83405C8.04727 17.968 8.98766 16.9413 8.93453 15.7279Z" fill="white"/>
</svg>
