<svg width="218" height="218" viewBox="0 0 218 218" fill="none" xmlns="http://www.w3.org/2000/svg">
<path d="M202.447 84.5847C199.203 81.3398 196.672 77.5432 194.946 73.4011C193.22 69.259 192.323 64.7719 192.323 60.1927C192.323 50.6434 188.457 42.0367 182.221 35.7777C175.962 29.5418 167.355 25.6761 157.806 25.6761C148.647 25.6761 139.88 22.0401 133.414 15.5514C126.672 8.80875 117.836 5.44922 108.999 5.44922C100.163 5.44922 91.3267 8.80875 84.5845 15.5514C81.34 18.7958 77.5431 21.3267 73.4011 23.0525C69.2591 24.7783 64.7719 25.6761 60.1927 25.6761C50.6431 25.6761 42.0369 29.5418 35.7778 35.7777C29.5419 42.0367 25.6761 50.6434 25.6761 60.1927C25.6761 64.7719 24.7786 69.259 23.0528 73.4011C21.3269 77.5432 18.7956 81.3398 15.5511 84.5847C8.80889 91.3268 5.44922 100.163 5.44922 108.999C5.44922 117.835 8.80889 126.672 15.5511 133.414C18.7956 136.659 21.3269 140.455 23.0528 144.597C24.7786 148.739 25.6761 153.227 25.6761 157.806C25.6761 167.355 29.5419 175.962 35.7778 182.221C42.0369 188.457 50.6431 192.322 60.1927 192.322C64.7719 192.322 69.2591 193.22 73.4011 194.946C77.5431 196.672 81.34 199.203 84.5845 202.447C91.3267 209.19 100.163 212.549 108.999 212.549C117.836 212.549 126.672 209.19 133.414 202.447C136.659 199.203 140.456 196.672 144.597 194.946C148.739 193.22 153.227 192.322 157.806 192.322C167.355 192.322 175.962 188.457 182.221 182.221C188.457 175.962 192.323 167.355 192.323 157.806C192.323 153.227 193.22 148.739 194.946 144.597C196.672 140.455 199.203 136.659 202.447 133.414C209.19 126.672 212.549 117.835 212.549 108.999C212.549 100.163 209.19 91.3268 202.447 84.5847ZM159.141 84.9067L97.9539 146.093C96.2281 147.819 93.8809 148.786 91.4417 148.786C89.0026 148.786 86.6555 147.819 84.9297 146.093L58.8581 120.022C55.2683 116.432 55.2683 110.61 58.8581 106.997C62.4478 103.408 68.2926 103.408 71.8823 106.997L91.4417 126.58L146.116 71.905C149.706 68.3157 155.551 68.3157 159.141 71.905C162.73 75.4949 162.73 81.3168 159.141 84.9067Z" fill="#D1291C"/>
</svg>
