<svg width="18" height="18" viewBox="0 0 18 18" fill="none" xmlns="http://www.w3.org/2000/svg">
<path d="M16.6606 16.9453V11.3193H10.6012V16.9453H9.54647V10.2646H13.1035V4.24962H11.9179V1.89306H10.5762V0H9.52151V1.89306H8.1798V4.24962H6.99412V16.9453H5.93944V6.60621H1.33942V16.9453H0V18H18V16.9453H16.6606ZM10.6998 5.55152H11.7545V6.60621H10.6998V5.55152ZM10.6998 7.90808H11.7545V8.96277H10.6998V7.90808ZM4.14348 16.5317H3.08879V15.477H4.14348V16.5317ZM4.14348 14.0087H3.08879V12.954H4.14348V14.0087ZM4.14348 11.4858H3.08879V10.4311H4.14348V11.4858ZM4.14348 8.96277H3.08879V7.90808H4.14348V8.96277ZM9.3979 8.96277H8.34321V7.90808H9.3979V8.96277ZM9.3979 6.60621H8.34321V5.55152H9.3979V6.60621ZM9.52147 3.19493H10.5762V4.24962H9.52147V3.19493ZM12.9726 16.9453H11.9179V12.7125H12.9726V16.9453ZM15.3439 16.9453H14.2892V12.7125H15.3439V16.9453Z" fill="#272727"/>
</svg>
