<svg width="27" height="18" viewBox="0 0 27 18" fill="none" xmlns="http://www.w3.org/2000/svg">
<path d="M26.1811 4.2442V2.86355C26.1811 1.28205 24.899 0 23.3175 0H2.86355C1.28205 0 0 1.28205 0 2.86355V4.2442C0 4.38538 0.114491 4.49987 0.255675 4.49987H25.9254C26.0666 4.49987 26.1811 4.38538 26.1811 4.2442Z" fill="#5D6066"/>
<path d="M0 6.39239V15.1365C0 16.718 1.28205 18 2.86355 18H23.3175C24.899 18 26.1811 16.718 26.1811 15.1365V6.39239C26.1811 6.25121 26.0666 6.13672 25.9254 6.13672H0.255675C0.114491 6.13672 0 6.25121 0 6.39239ZM6.54527 13.0911C6.54527 13.5429 6.17894 13.9092 5.72711 13.9092H4.90895C4.45712 13.9092 4.09079 13.5429 4.09079 13.0911V12.2729C4.09079 11.8211 4.45712 11.4547 4.90895 11.4547H5.72711C6.17894 11.4547 6.54527 11.8211 6.54527 12.2729V13.0911Z" fill="#5D6066"/>
</svg>
