<svg width="85" height="100" viewBox="0 0 85 100" fill="none" xmlns="http://www.w3.org/2000/svg">
<path fill-rule="evenodd" clip-rule="evenodd" d="M84.9961 19.4999C82.3087 33.7085 72.2001 45.5528 58.4536 50.4974C58.3774 50.5248 58.298 50.5085 58.2388 50.454L47.5913 40.671C47.525 40.6102 47.4319 40.5975 47.3518 40.6386C42.4355 43.1572 39.1507 47.344 37.2515 52.6503C36.1134 55.8303 35.5044 59.2788 35.1091 62.836C35.1041 62.882 35.1128 62.9231 35.1361 62.9633L54.3638 96.0045C54.9622 97.0329 54.6038 98.36 53.5672 98.9537L52.2427 99.7124C51.2062 100.306 49.8686 99.9505 49.2702 98.9221L4.62318 22.2001C4.58887 22.1411 4.53374 22.1052 4.46579 22.0973C2.93606 21.9169 1.5079 21.0481 0.678413 19.6227C-0.718178 17.2226 0.110627 14.1534 2.52978 12.7675C4.94894 11.3817 8.04249 12.2042 9.43931 14.6044C10.2688 16.0299 10.3132 17.6913 9.70581 19.0959C9.67882 19.1586 9.68271 19.2237 9.71702 19.2827L14.9788 28.3249C15.0662 28.4752 15.2908 28.4595 15.3562 28.2986C18.4727 20.6382 22.4238 15.6118 27.2605 13.3826C34.893 9.86492 43.5335 13.2256 49.436 18.7925C49.4944 18.8476 49.5735 18.8649 49.6497 18.8388C58.0876 15.9502 63.0917 10.0401 63.6259 0.198122C63.6355 0.0210913 63.8478 -0.0642466 63.9789 0.0560437L84.9321 19.3084C84.9865 19.3583 85.0099 19.4273 84.9961 19.4999Z" fill="#D1291C"/>
</svg>
