<svg width="104" height="100" viewBox="0 0 104 100" fill="none" xmlns="http://www.w3.org/2000/svg">
<path d="M32.4359 84.9379C37.1237 81.9222 40.9956 78.4451 43.0746 75.1392C44.096 73.5115 44.662 71.9764 44.6218 70.6166C44.5875 69.4119 44.0335 68.2858 42.8409 67.3269C41.5456 66.2874 39.5572 65.4252 36.753 64.8087C35.6511 66.2652 34.5088 67.7318 33.3787 69.1783L33.3102 69.2588L33.288 69.287L33.2477 69.3434L33.1792 69.424L33.1389 69.4804L33.1168 69.5086L33.0543 69.5892L32.9858 69.6758L32.9234 69.7564L32.8609 69.843L32.8388 69.8713L32.7924 69.9216L32.73 70.0082L32.6837 70.0606L32.6615 70.0888L32.599 70.1694L32.5366 70.256L32.4802 70.3245L32.452 70.3588V70.3648L32.4238 70.3991L32.3956 70.4333L32.3674 70.4676L32.3452 70.5078H32.3392L32.317 70.5421L32.2888 70.5763L32.2606 70.6106L32.2324 70.6509L32.2042 70.6851L32.176 70.7194L32.1699 70.7315L32.1176 70.7939L32.0612 70.8624V70.8684L32.033 70.9027L32.0048 70.9369L31.9483 71.0115L31.9201 71.0457L31.8919 71.086L31.8637 71.1203L31.8355 71.1606L31.8073 71.1948L31.7791 71.2351H31.7731L31.7449 71.2693V71.2754L31.7167 71.3096L31.6885 71.3499L31.6603 71.3842L31.6321 71.4245H31.626L31.5978 71.4647L31.5696 71.499L31.5414 71.5393L31.5132 71.5796H31.5072L31.479 71.6199L31.4508 71.6541V71.6602L31.4165 71.6944V71.7004L31.3883 71.7347V71.7407L31.3601 71.775L31.3541 71.781L31.3259 71.8153V71.8213L31.2977 71.8556L31.2916 71.8616L31.2634 71.8959V71.9019L31.2292 71.9422L31.201 71.9825L31.1667 72.0228L31.1325 72.0631V72.0691L31.1043 72.1094H31.0982L31.07 72.1497L31.0358 72.19V72.196L30.9673 72.2766V72.2826L30.9391 72.3229H30.933L30.9048 72.3693H30.8988L30.8706 72.4096L30.8645 72.4156L30.8363 72.4559H30.8303L30.796 72.5022L30.7275 72.5929L30.6933 72.6392L30.659 72.6856L30.6188 72.7319L30.5845 72.7782C30.1554 73.3262 29.6316 73.7553 29.0253 74.0514C28.4149 74.3475 27.7521 74.5027 27.0611 74.5027C26.3701 74.5027 25.7073 74.3475 25.0969 74.0514C24.4926 73.7553 23.9668 73.3262 23.5377 72.7782C22.7621 71.7851 22.1738 71.0316 21.5735 70.2721C18.3644 66.1887 14.9215 61.8091 12.6471 58.0117C11.5573 59.581 10.5339 61.2047 9.56289 62.8708C8.11848 65.3547 6.805 67.895 5.59427 70.4877C5.41699 70.8644 5.11481 71.1505 4.76025 71.3096C9.15193 80.6228 16.3297 88.3606 25.2218 93.4493C26.0679 91.6967 27.0027 90.0568 28.1348 88.6346C29.3174 87.1136 30.7175 85.8465 32.4359 84.9379Z" fill="#D1291C"/>
<path d="M6.54918 41.3321C8.03993 41.4812 9.5468 41.5033 11.0839 41.3784C11.2612 40.8809 11.4606 40.3954 11.6782 39.9159C11.8716 39.4928 12.0771 39.0819 12.3007 38.677C12.8768 37.6254 13.5678 36.6201 14.3797 35.6793C14.4602 35.5826 14.5449 35.4859 14.6315 35.3872L14.6476 35.3711L14.6637 35.349L14.704 35.3087L14.7201 35.2865L14.7262 35.2805L14.7382 35.2684L14.7604 35.2462L14.7765 35.2301V35.2241L14.8168 35.1838L14.8511 35.1435L14.8672 35.1274C15.8664 34.0597 16.9683 33.1692 18.1509 32.444C19.3153 31.7309 20.5663 31.1648 21.8677 30.7599C23.0663 29.2631 24.5289 27.7381 26.3963 26.2715C28.4229 24.6719 30.9472 23.1369 34.1684 21.7428C40.4215 19.0413 44.9441 16.1465 48.8442 12.7097C52.6074 9.39778 55.8105 5.5601 59.4306 0.894451C56.3786 0.302179 53.2279 0 50.0006 0C25.7436 0 5.51573 17.2786 0.958862 40.202C1.02131 40.208 1.07973 40.2241 1.13614 40.2422C2.91699 40.766 4.722 41.1488 6.54918 41.3321Z" fill="#D1291C"/>
<path d="M78.3752 76.0521C77.3921 72.0371 76.6105 67.9436 76.0968 63.7453C75.6052 59.7828 75.3836 58.4753 75.2849 58.4854C74.9767 58.5257 73.9654 60.0225 72.938 61.5414C71.6245 63.4895 70.2949 65.4637 68.6954 66.0641C66.0564 67.0471 59.4507 63.9569 54.8012 59.7485C53.3165 58.4068 52.0091 56.9503 51.0501 55.4838C50.0106 53.8842 49.372 52.2404 49.3378 50.6408C49.2915 48.3906 50.3712 46.3861 53.0546 44.9236C53.5461 44.6557 54.0538 44.4905 54.6259 44.3011C56.1671 43.7934 58.3951 43.0561 58.3609 39.7845C58.3206 35.832 60.879 33.2695 64.4931 31.4585C67.1825 30.1168 70.4037 29.2143 73.488 28.4548C72.5009 25.7372 72.1342 22.8081 72.38 19.9414C72.7285 15.9667 74.2696 12.0888 76.9993 9.04078C77.2169 8.80105 77.4385 8.56737 77.6621 8.34375C73.1959 5.37434 68.228 3.10195 62.9057 1.67969C62.8492 1.9033 62.7505 2.11281 62.6035 2.30822C58.6409 7.43117 55.196 11.6153 51.0804 15.2415C46.9405 18.8898 42.1379 21.962 35.502 24.8287C32.6011 26.0857 30.3226 27.4778 28.4894 28.9222C28.0442 29.2707 27.6272 29.6192 27.2384 29.9738C31.207 30.014 35.1636 31.4121 38.2256 34.1539C38.6547 34.5367 39.0657 34.9476 39.4585 35.3868C42.1661 38.4086 43.7233 42.3027 44.0718 46.3116C44.4264 50.3145 43.5742 54.4543 41.457 57.9898C40.7136 59.2288 39.8473 60.5302 38.9045 61.8678C41.5315 62.5809 43.5178 63.5459 44.9522 64.6942C46.9848 66.334 47.9276 68.3203 47.9901 70.5242C48.0465 72.5851 47.2991 74.7547 45.9292 76.9365C43.5702 80.6775 39.2873 84.5434 34.1603 87.8311C34.12 87.8532 34.0797 87.8774 34.0395 87.8996C32.7602 88.5724 31.6865 89.5434 30.7618 90.7139C29.7747 91.9528 28.9467 93.4032 28.2034 94.9625L28.1812 95.0028C34.7768 98.1998 42.1782 99.9988 50.0006 99.9988C62.2429 99.9988 73.4537 95.5951 82.1444 88.2924C82.0074 88.1332 81.8926 87.9439 81.8181 87.7263C80.5288 83.937 79.3583 80.055 78.3752 76.0521Z" fill="#D1291C"/>
<path d="M11.0034 54.4759C10.1009 51.855 9.77047 49.0448 10.0102 46.2929C10.0565 45.7913 10.119 45.2998 10.1996 44.8022C8.85184 44.8586 7.52628 44.8143 6.21885 44.6813C4.23656 44.4879 2.30664 44.087 0.410964 43.5391C0.143032 45.6543 0 47.8119 0 49.9997C0 56.2064 1.13015 62.1453 3.19706 67.6288C4.2708 65.4128 5.407 63.2492 6.62982 61.1581C7.95941 58.8676 9.40584 56.6416 11.0034 54.4759Z" fill="#D1291C"/>
<path d="M96.1193 42.354L96.0568 42.4285L96.0004 42.5091L95.9662 42.5494L95.938 42.5897L95.8755 42.6642L95.8191 42.7448H95.8131L95.7567 42.8193L95.6942 42.8999L95.666 42.9402L95.6378 42.9744L95.5754 43.055L95.5129 43.1356L95.4565 43.2101L95.3941 43.2907L95.3659 43.331L95.3316 43.3653L95.2752 43.4458L95.2127 43.5204L95.1563 43.601L95.0939 43.6755L95.0657 43.7158L95.0375 43.75L94.975 43.8306L94.9126 43.9052L94.8844 43.9454L94.8622 43.9797L94.834 44.0139L94.7776 44.0885L94.7494 44.1227L94.7212 44.157L94.693 44.1912L94.6648 44.2315L94.6366 44.2658L94.6084 44.3L94.5802 44.3343L94.552 44.3745L94.5238 44.4088L94.5016 44.443H94.4956L94.4734 44.4833H94.4674L94.4452 44.5176H94.4392L94.417 44.5518H94.411L94.3888 44.5921H94.3828L94.3606 44.6264H94.3546L94.3082 44.6888L94.3022 44.7009H94.28L94.2518 44.7351V44.7412L94.2236 44.7754L94.1954 44.8097L94.1672 44.85L94.139 44.8842V44.8903L94.0826 44.9588V44.9648L94.0544 44.999H94.0484L94.0201 45.0393L93.9919 45.0736V45.0796L93.9637 45.1139L93.9355 45.1542H93.9295L93.9013 45.1945L93.8731 45.2287V45.2347L93.8449 45.269L93.8388 45.275L93.8106 45.3093L93.7824 45.3496L93.7482 45.3899L93.72 45.4302L93.6857 45.4704L93.6575 45.5107L93.6233 45.551L93.5951 45.5913V45.5974L93.5608 45.6316V45.6377L93.5326 45.6779H93.5266L93.4984 45.7182L93.4641 45.7585V45.7646L93.4299 45.8049L93.4017 45.8451H93.3956L93.3674 45.8915L93.3332 45.9318L93.2989 45.9781L93.2647 46.0184V46.0244L93.2304 46.0647L93.162 46.1554L93.1277 46.1957V46.2017L93.0935 46.242H93.0874L93.0532 46.2883L93.0189 46.3347L92.9847 46.381L92.9444 46.4314C92.5213 46.9793 91.9915 47.4024 91.3851 47.6985C90.7747 48.0007 90.118 48.1558 89.421 48.1558H89.3928L89.3646 48.1498H89.1994L89.1873 48.1437H89.1007L89.0725 48.1377H89.0322C89.004 48.1316 88.9758 48.1316 88.9415 48.1256H88.9254L88.8972 48.1196H88.869L88.8509 48.1135H88.8388L88.8166 48.1075H88.7824L88.7542 48.1014L88.726 48.0954L88.6978 48.0893H88.6696L88.6635 48.0833H88.6414L88.6293 48.0772H88.6131L88.6011 48.0712H88.5849L88.5688 48.0652L88.5124 48.0531H88.5003L88.4782 48.047L88.45 48.041L88.4218 48.0349H88.4157L88.3936 48.0289L88.3875 48.0229L88.3654 48.0168H88.3593L88.3372 48.0108H88.3251L88.3089 48.0047L88.2969 47.9987H88.2808L88.2687 47.9926L88.2344 47.9806H88.2284L88.2062 47.9745H88.2002L88.178 47.9624H88.172L88.1438 47.9564L88.1156 47.9443L88.0934 47.9382H88.0874L88.0652 47.9262H88.0592L88.037 47.9201L88.0249 47.9141L88.0068 47.908H87.9947L87.9786 47.902L87.9564 47.8899L87.9403 47.8839L87.9282 47.8778L87.9121 47.8718H87.9L87.8778 47.8597H87.8718L87.8496 47.8476L87.8214 47.8355L87.7932 47.8234L87.7711 47.8174L87.765 47.8113L87.7429 47.8053L87.7368 47.7992L87.7147 47.7932L87.7086 47.7872L87.6905 47.7811L87.6744 47.7751L87.6623 47.769L87.6462 47.763L87.6341 47.7569C87.5817 47.7348 87.5253 47.7106 87.4749 47.6884C86.8706 47.3923 86.3448 46.9632 85.9096 46.4092C85.1341 45.41 84.5458 44.6626 83.9515 43.9031C80.7424 39.8197 77.2935 35.4341 75.0251 31.6427L74.9788 31.5742C71.8543 32.3337 68.5424 33.208 66.0182 34.4751C63.5061 35.7322 61.7232 37.3922 61.7474 39.7633C61.8038 45.5027 58.1958 46.6892 55.6998 47.5132C55.2545 47.6562 54.8597 47.7872 54.6824 47.8839C53.2723 48.6554 52.7062 49.5861 52.7243 50.5793C52.7404 51.4979 53.1816 52.5495 53.8947 53.6454C54.6945 54.8682 55.8085 56.1011 57.0757 57.2494C60.9416 60.7507 65.9275 63.5085 67.5371 62.9082C68.1072 62.6906 69.1427 61.1656 70.158 59.6527C71.6145 57.4891 73.0529 55.3578 74.8922 55.1301C77.0054 54.8723 78.6674 56.8546 79.4672 63.3413C79.9748 67.453 80.7283 71.4156 81.6711 75.2593C82.5555 78.8673 83.6131 82.4209 84.7896 85.9262C94.1833 76.8347 100.019 64.1008 100.019 50.0011C100.019 46.1977 99.5903 42.491 98.7865 38.9293C97.9062 40.0655 97.0097 41.2117 96.1193 42.354Z" fill="#D1291C"/>
<path d="M17.1376 37.6328C14.9216 40.1107 13.6665 43.2977 13.3805 46.5813C13.0843 49.9456 13.8035 53.3824 15.528 56.2612C17.6573 59.8309 21.0558 64.1481 24.2126 68.167C24.96 69.1098 25.6913 70.0406 26.1889 70.6852C26.3097 70.8343 26.4346 70.9431 26.5595 71.0055C26.6905 71.068 26.8516 71.1022 27.045 71.1022C27.2384 71.1022 27.3996 71.068 27.5305 71.0055C27.6554 70.9431 27.7824 70.8343 27.9012 70.6852C28.3988 70.0406 29.1341 69.1098 29.8775 68.161C33.0363 64.146 36.4267 59.8289 38.5621 56.2612C40.2986 53.3602 40.9957 49.9335 40.7036 46.6055C40.4114 43.2876 39.1443 40.0905 36.9465 37.6348C36.6382 37.2924 36.3179 36.966 35.9755 36.6638C33.5077 34.4539 30.2824 33.3459 27.0491 33.3398C23.8178 33.3398 20.5905 34.4418 18.1126 36.6638C17.7762 36.964 17.4518 37.2903 17.1376 37.6328ZM27.045 37.935C29.5128 37.935 31.751 38.9342 33.3666 40.5559C34.9883 42.1715 35.9875 44.4097 35.9875 46.8775C35.9875 49.3493 34.9883 51.5834 33.3666 53.2051C31.751 54.8208 29.5128 55.82 27.045 55.82C24.5732 55.82 22.3391 54.8208 20.7174 53.2051C19.1017 51.5834 18.0965 49.3513 18.0965 46.8775C18.0965 44.4097 19.1017 42.1715 20.7174 40.5559C22.3391 38.9342 24.5712 37.935 27.045 37.935Z" fill="#D1291C"/>
<path d="M27.045 52.4367C28.5821 52.4367 29.9681 51.8142 30.9734 50.809C31.9847 49.8037 32.6071 48.4097 32.6071 46.8746C32.6071 45.3375 31.9847 43.9515 30.9734 42.9402C29.9681 41.935 28.5801 41.3125 27.045 41.3125C25.51 41.3125 24.1159 41.935 23.1107 42.9402C22.1054 43.9515 21.4829 45.3395 21.4829 46.8746C21.4829 48.4117 22.1054 49.8037 23.1107 50.809C24.1159 51.8142 25.5079 52.4367 27.045 52.4367Z" fill="#D1291C"/>
<path d="M89.4149 14.9648C87.8778 14.9648 86.4918 15.5873 85.4805 16.5926C84.4753 17.5978 83.8528 18.9919 83.8528 20.527C83.8528 22.064 84.4753 23.45 85.4805 24.4613C86.4918 25.4666 87.8798 26.0891 89.4149 26.0891C90.952 26.0891 92.344 25.4666 93.3493 24.4613C94.3545 23.45 94.977 22.062 94.977 20.527C94.977 18.9899 94.3545 17.5978 93.3493 16.5926C92.344 15.5873 90.95 14.9648 89.4149 14.9648Z" fill="#D1291C"/>
<path d="M103.079 20.2479C102.787 16.93 101.514 13.737 99.3224 11.2833C99.0141 10.9408 98.6878 10.6144 98.3514 10.3123C95.8795 8.10232 92.6583 6.98828 89.425 6.98828C86.1917 6.98828 82.9604 8.09023 80.4825 10.3123C80.1461 10.6144 79.8197 10.9408 79.5115 11.2833C77.2895 13.7611 76.0404 16.9481 75.7483 20.2318C75.4562 23.59 76.1714 27.0329 77.8958 29.9116C80.0312 33.4753 83.4237 37.7925 86.5865 41.8114C87.3299 42.7603 88.0652 43.695 88.5628 44.3296C88.6715 44.4726 88.7964 44.5814 88.9334 44.6499H88.9274L88.9334 44.656C89.0583 44.7184 89.2255 44.7466 89.4129 44.7466C89.6063 44.7466 89.7735 44.7184 89.8984 44.656C90.0293 44.5935 90.1563 44.4847 90.2691 44.3296C90.7707 43.691 91.502 42.7583 92.2453 41.8114C95.4081 37.7904 98.8006 33.4733 100.936 29.9116C102.675 27.0107 103.372 23.5779 103.079 20.2479ZM95.7425 26.8495C94.1209 28.4712 91.8888 29.4704 89.4149 29.4704C86.9471 29.4704 84.709 28.4712 83.0933 26.8495C81.4716 25.2339 80.4724 22.9957 80.4724 20.5279C80.4724 18.0561 81.4716 15.822 83.0933 14.2003C84.709 12.5846 86.9471 11.5854 89.4149 11.5854C91.8867 11.5854 94.1209 12.5846 95.7425 14.2003C97.3582 15.822 98.3574 18.0541 98.3574 20.5279C98.3574 22.9957 97.3582 25.2339 95.7425 26.8495Z" fill="#D1291C"/>
</svg>
