<svg width="25" height="25" viewBox="0 0 25 25" fill="none" xmlns="http://www.w3.org/2000/svg">
<path d="M10.0617 20.116C12.2963 20.116 14.4669 19.3704 16.2298 17.9971L22.8806 24.6489C23.3774 25.1288 24.1691 25.115 24.6489 24.6181C25.117 24.1334 25.117 23.3649 24.6489 22.8803L17.9981 16.2284C21.4053 11.8418 20.6119 5.52323 16.2259 2.11551C11.8399 -1.2922 5.52239 -0.498665 2.11519 3.88799C-1.29201 8.27464 -0.49859 14.5932 3.8874 18.0009C5.65315 19.3729 7.82573 20.1171 10.0617 20.116ZM4.71787 4.71474C7.66923 1.76287 12.4543 1.76282 15.4058 4.71463C18.3572 7.66644 18.3572 12.4523 15.4059 15.4041C12.4545 18.356 7.66939 18.3561 4.71797 15.4042C4.71792 15.4042 4.71792 15.4042 4.71787 15.4041C1.7665 12.4738 1.74911 7.70545 4.67897 4.75363C4.69192 4.74063 4.70487 4.72768 4.71787 4.71474Z" fill="white"/>
</svg>
