<svg width="30" height="30" viewBox="0 0 30 30" fill="none" xmlns="http://www.w3.org/2000/svg">
<g clip-path="url(#clip0_817_1147)">
<path d="M29.9992 20.302C29.9992 16.5792 27.8635 13.2568 24.6649 11.6406C24.5656 18.7785 18.7785 24.5656 11.6406 24.6649C13.2568 27.8635 16.5792 29.9992 20.302 29.9992C22.0474 29.9992 23.7448 29.5344 25.2362 28.6511L29.9569 29.9569L28.6511 25.2362C29.5344 23.7448 29.9992 22.0474 29.9992 20.302Z" fill="#272727"/>
<path d="M22.9102 11.4551C22.9102 5.13863 17.7715 0 11.4551 0C5.13863 0 0 5.13863 0 11.4551C0 13.5136 0.547943 15.518 1.58844 17.2776L0.0421143 22.8678L5.63255 21.3217C7.3922 22.3622 9.39652 22.9102 11.4551 22.9102C17.7715 22.9102 22.9102 17.7715 22.9102 11.4551ZM9.69727 8.78906H7.93945C7.93945 6.85043 9.51645 5.27344 11.4551 5.27344C13.3937 5.27344 14.9707 6.85043 14.9707 8.78906C14.9707 9.77303 14.5541 10.7188 13.8274 11.3834L12.334 12.7503V14.1211H10.5762V11.9762L12.6407 10.0866C13.0096 9.74899 13.2129 9.28825 13.2129 8.78906C13.2129 7.81975 12.4244 7.03125 11.4551 7.03125C10.4858 7.03125 9.69727 7.81975 9.69727 8.78906ZM10.5762 15.8789H12.334V17.6367H10.5762V15.8789Z" fill="#272727"/>
</g>
<defs>
<clipPath id="clip0_817_1147">
<rect width="30" height="30" fill="white"/>
</clipPath>
</defs>
</svg>
