<svg width="17" height="17" viewBox="0 0 17 17" fill="none" xmlns="http://www.w3.org/2000/svg">
<g clip-path="url(#clip0_592_317)">
<path d="M3.54167 7.08333C3.54167 6.69233 3.859 6.375 4.25 6.375H6.375V4.25C6.375 3.859 6.69233 3.54167 7.08333 3.54167C7.47433 3.54167 7.79167 3.859 7.79167 4.25V6.375H9.91667C10.3077 6.375 10.625 6.69233 10.625 7.08333C10.625 7.47433 10.3077 7.79167 9.91667 7.79167H7.79167V9.91667C7.79167 10.3077 7.47433 10.625 7.08333 10.625C6.69233 10.625 6.375 10.3077 6.375 9.91667V7.79167H4.25C3.859 7.79167 3.54167 7.47433 3.54167 7.08333ZM17 6.375V13.4583C17 15.4112 15.4112 17 13.4583 17H6.375C4.64242 17 3.20237 15.7477 2.8985 14.1015C1.25233 13.7976 0 12.3576 0 10.625V3.54167C0 1.58879 1.58879 0 3.54167 0H10.625C12.3576 0 13.7976 1.25233 14.1015 2.8985C15.7477 3.20237 17 4.64242 17 6.375ZM3.54167 12.75H10.625C11.7966 12.75 12.75 11.7966 12.75 10.625V3.54167C12.75 2.37008 11.7966 1.41667 10.625 1.41667H3.54167C2.37008 1.41667 1.41667 2.37008 1.41667 3.54167V10.625C1.41667 11.7966 2.37008 12.75 3.54167 12.75ZM15.5833 6.375C15.5833 5.45275 14.989 4.67358 14.1667 4.38033V10.625C14.1667 12.5779 12.5779 14.1667 10.625 14.1667H4.38033C4.67358 14.989 5.45275 15.5833 6.375 15.5833H13.4583C14.6299 15.5833 15.5833 14.6299 15.5833 13.4583V6.375Z" fill="white"/>
</g>
<defs>
<clipPath id="clip0_592_317">
<rect width="17" height="17" fill="white"/>
</clipPath>
</defs>
</svg>
