<svg width="18" height="18" viewBox="0 0 18 18" fill="none" xmlns="http://www.w3.org/2000/svg">
<path d="M3.875 18.003H7.31944V11.0387L3.875 9.50781V18.003ZM5.8125 11.7599H6.67361V13.0516H5.8125V11.7599ZM5.8125 13.4821H6.67361V14.7738H5.8125V13.4821ZM5.8125 15.2044H6.67361V16.496H5.8125V15.2044ZM4.52083 11.7599H5.38194V13.0516H4.52083V11.7599ZM4.52083 13.4821H5.38194V14.7738H4.52083V13.4821ZM4.52083 15.2044H5.38194V16.496H4.52083V15.2044Z" fill="#272727"/>
<path d="M0 18.003H3.44444V9.50781L0 11.0387V18.003ZM1.9375 11.7599H2.79861V13.0516H1.9375V11.7599ZM1.9375 13.4821H2.79861V14.7738H1.9375V13.4821ZM1.9375 15.2044H2.79861V16.496H1.9375V15.2044ZM0.645833 11.7599H1.50694V13.0516H0.645833V11.7599ZM0.645833 13.4821H1.50694V14.7738H0.645833V13.4821ZM0.645833 15.2044H1.50694V16.496H0.645833V15.2044Z" fill="#272727"/>
<path d="M5.16441 9.6041C5.16441 9.60526 5.16406 9.60638 5.16406 9.60754L7.61991 10.699C7.69766 10.7336 7.74774 10.8107 7.74774 10.8958V17.9999H11.1922V0L5.16441 2.00927V9.6041ZM8.82413 2.28466L10.5463 1.8541V2.71521L8.82413 3.14577V2.28466ZM8.82413 3.57632L10.5463 3.14577V4.00688L8.82413 4.43743V3.57632ZM8.82413 4.86799L10.5463 4.43743V5.29854L8.82413 5.7291V4.86799ZM8.82413 6.15965L10.5463 5.7291V6.59021L8.82413 7.02076V6.15965ZM8.82413 7.45132L10.5463 7.02076V7.88187L8.82413 8.31243V7.45132ZM8.82413 8.74298L10.5463 8.31243V9.17354L8.82413 9.6041V8.74298ZM8.82413 10.0347L10.5463 9.6041V10.4652L8.82413 10.8958V10.0347ZM8.82413 11.3263L10.5463 10.8958V11.7569L8.82413 12.1874V11.3263ZM6.24079 3.14577L7.96302 2.71521V3.57632L6.24079 4.00688V3.14577ZM6.24079 4.43743L7.96302 4.00688V4.86799L6.24079 5.29854V4.43743ZM6.24079 5.7291L7.96302 5.29854V6.15965L6.24079 6.59021V5.7291ZM6.24079 7.02076L7.96302 6.59021V7.45132L6.24079 7.88187V7.02076Z" fill="#272727"/>
<path d="M11.625 0V17.9999H17.6528V2.00927L11.625 0ZM13.9931 12.1874L12.2708 11.7569V10.8958L13.9931 11.3263V12.1874ZM13.9931 10.8958L12.2708 10.4652V9.6041L13.9931 10.0347V10.8958ZM13.9931 9.6041L12.2708 9.17354V8.31243L13.9931 8.74298V9.6041ZM13.9931 8.31243L12.2708 7.88187V7.02076L13.9931 7.45132V8.31243ZM13.9931 7.02076L12.2708 6.59021V5.7291L13.9931 6.15965V7.02076ZM13.9931 5.7291L12.2708 5.29854V4.43743L13.9931 4.86799V5.7291ZM13.9931 4.43743L12.2708 4.00688V3.14577L13.9931 3.57632V4.43743ZM13.9931 3.14577L12.2708 2.71521V1.8541L13.9931 2.28466V3.14577ZM16.5764 13.0485L14.8542 12.618V11.7569L16.5764 12.1874V13.0485ZM16.5764 11.7569L14.8542 11.3263V10.4652L16.5764 10.8958V11.7569ZM16.5764 10.4652L14.8542 10.0347V9.17354L16.5764 9.6041V10.4652ZM16.5764 9.17354L14.8542 8.74298V7.88187L16.5764 8.31243V9.17354ZM16.5764 7.88187L14.8542 7.45132V6.59021L16.5764 7.02076V7.88187ZM16.5764 6.59021L14.8542 6.15965V5.29854L16.5764 5.7291V6.59021ZM16.5764 5.29854L14.8542 4.86799V4.00688L16.5764 4.43743V5.29854ZM16.5764 4.00688L14.8542 3.57632V2.71521L16.5764 3.14577V4.00688Z" fill="#272727"/>
</svg>
