<svg width="101" height="100" viewBox="0 0 101 100" fill="none" xmlns="http://www.w3.org/2000/svg">
<path d="M72.5647 16.4947L70.871 11.2815C70.7221 10.8326 70.4017 10.461 69.9797 10.2475C69.5577 10.0341 69.0685 9.99617 68.6187 10.1421C68.1689 10.288 67.7951 10.6059 67.5788 11.0264C67.3626 11.447 67.3214 11.936 67.4643 12.3867L67.8236 13.4926C59.1728 9.76227 52.1295 9.84873 49.1009 13.8732C46.2757 17.6279 47.6354 23.7261 52.8311 30.6059C53.1185 30.9814 53.5428 31.228 54.0113 31.2918C54.4799 31.3556 54.9547 31.2315 55.332 30.9465C55.7094 30.6615 55.9587 30.2388 56.0255 29.7707C56.0923 29.3026 55.9712 28.827 55.6887 28.4478C51.711 23.1804 50.2481 18.3047 51.962 16.0277C53.8399 13.5311 59.4898 13.8557 66.1827 16.6833L65.0947 17.0368C64.6465 17.1865 64.2756 17.5072 64.0628 17.929C63.85 18.3509 63.8125 18.8398 63.9586 19.2892C64.1046 19.7386 64.4223 20.1121 64.8424 20.3283C65.2626 20.5445 65.7511 20.5859 66.2017 20.4435L71.4148 18.7506C71.8663 18.6037 72.241 18.2836 72.4566 17.8606C72.6722 17.4376 72.7111 16.9463 72.5647 16.4947Z" fill="#D1291C"/>
<path d="M89.0744 29.3645C88.7685 29.0051 88.3331 28.781 87.8629 28.7409C87.3927 28.7007 86.9256 28.8477 86.5632 29.15C86.2008 29.4523 85.9724 29.8854 85.9275 30.3551C85.8826 30.8249 86.0249 31.2934 86.3235 31.6589C91.1834 37.4859 93.1736 43.0961 91.2752 45.6179C89.7476 47.6462 85.5037 47.8326 80.1764 46.1258L81.2738 45.5182C81.6847 45.2855 81.9872 44.8999 82.1153 44.4454C82.2434 43.9908 82.1869 43.5041 81.958 43.091C81.7291 42.6779 81.3463 42.3719 80.893 42.2396C80.4397 42.1073 79.9524 42.1593 79.5372 42.3843L74.7428 45.0408C74.3278 45.2714 74.0212 45.6572 73.8904 46.1136C73.7595 46.57 73.8152 47.0597 74.0451 47.4751L76.7024 52.2686C76.9343 52.6804 77.3197 52.9838 77.7744 53.1126C78.2291 53.2414 78.7163 53.1851 79.1297 52.9562C79.5431 52.7272 79.8492 52.344 79.9812 51.8902C80.1133 51.4364 80.0605 50.9489 79.8345 50.5338L79.3197 49.6048C84.3142 51.1681 90.9883 51.9543 94.1363 47.7724C97.1924 43.71 95.3001 36.8302 89.0744 29.3645Z" fill="#D1291C"/>
<path d="M4.62421 64C5.64495 83.824 25.5406 99.6366 49.949 99.6366C74.3574 99.6366 94.253 83.824 95.2738 64H4.62421ZM12.0918 76.5534C11.409 75.3611 10.8106 74.1224 10.301 72.8465C10.1269 72.408 10.1333 71.9184 10.3187 71.4846C10.5042 71.0507 10.8536 70.7078 11.2908 70.5306C11.7281 70.3533 12.2176 70.3561 12.6528 70.5383C13.088 70.7206 13.4335 71.0675 13.614 71.5034C14.0689 72.6313 14.6014 73.7263 15.2078 74.7805C15.4379 75.1934 15.4957 75.6805 15.3685 76.1358C15.2413 76.5911 14.9394 76.9777 14.5285 77.2114C14.1177 77.4452 13.6311 77.5072 13.1747 77.384C12.7183 77.2607 12.3291 76.9622 12.0918 76.5534ZM40.028 95.4283C30.7336 93.6326 22.2671 88.8843 15.8882 81.89C15.5827 81.5303 15.4311 81.0648 15.466 80.5942C15.501 80.1236 15.7198 79.6857 16.0751 79.3751C16.4304 79.0645 16.8936 78.9062 17.3647 78.9345C17.8357 78.9628 18.2767 79.1753 18.5923 79.5261C24.4527 85.9394 32.2294 90.2863 40.7623 91.9183C41.2242 92.0192 41.6276 92.2984 41.8847 92.6953C42.1418 93.0921 42.2317 93.5744 42.1348 94.0372C42.038 94.5 41.7623 94.9059 41.3678 95.1664C40.9732 95.4269 40.4917 95.5211 40.028 95.4283Z" fill="#D1291C"/>
<path d="M98.4754 60.7808H1.77297C1.30112 60.7761 0.850208 60.5853 0.518219 60.25C0.186231 59.9147 0 59.4619 0 58.99C0 58.5181 0.186231 58.0653 0.518219 57.73C0.850208 57.3947 1.30112 57.2039 1.77297 57.1992H98.4754C98.9472 57.2039 99.3982 57.3947 99.7301 57.73C100.062 58.0653 100.248 58.5181 100.248 58.99C100.248 59.4619 100.062 59.9147 99.7301 60.25C99.3982 60.5853 98.9472 60.7761 98.4754 60.7808Z" fill="#D1291C"/>
<path d="M97.4905 9.2236C97.4905 9.2236 81.7316 28.2418 68.1037 43.2664C67.4706 43.964 67.0109 44.8011 66.762 45.7096C66.5131 46.6182 66.4819 47.5727 66.6711 48.4955C66.9945 50.1859 67.0127 51.9204 66.7248 53.6172H40.2391C41.0413 51.5695 42.1591 49.6601 43.552 47.9583C45.1349 45.8476 47.1538 44.1025 49.4714 42.8417C51.789 41.5809 54.3509 40.8341 56.9829 40.6519C57.9267 40.6437 58.8552 40.4123 59.6924 39.9765C60.5297 39.5408 61.2519 38.9131 61.8001 38.1448C73.6014 21.7591 88.841 2.22163 88.841 2.22163C89.2905 1.62383 89.8558 1.12272 90.5033 0.748224C91.1507 0.373722 91.8669 0.133505 92.6092 0.0419092C93.3516 -0.0496865 94.1047 0.00921738 94.8238 0.215106C95.5428 0.420994 96.213 0.769646 96.7943 1.24025C97.3757 1.71085 97.8562 2.29376 98.2073 2.95417C98.5584 3.61459 98.7729 4.33897 98.8378 5.08408C98.9028 5.8292 98.817 6.57976 98.5855 7.29098C98.354 8.0022 97.9816 8.65948 97.4905 9.2236Z" fill="#D1291C"/>
</svg>
