<svg width="20" height="18" viewBox="0 0 20 18" fill="none" xmlns="http://www.w3.org/2000/svg">
<path d="M17.7474 7.25424C17.5948 7.19073 17.4182 7.22586 17.3015 7.34295L14.7759 9.86777C14.6041 10.04 14.3868 10.1558 14.1495 10.2034L12.1041 10.6125C11.6966 10.6948 11.2843 10.5653 10.9959 10.2773C10.705 9.98601 10.5796 9.57135 10.6603 9.16865L11.0211 7.36369H4.49995C4.27383 7.36369 4.09085 7.18072 4.09085 6.95459C4.09085 6.72847 4.27383 6.54549 4.49995 6.54549H11.3673C11.3815 6.52973 11.3898 6.5099 11.4049 6.49475L12.9907 4.90913H4.49995C4.27383 4.90913 4.09085 4.72615 4.09085 4.50003C4.09085 4.27391 4.27383 4.09093 4.49995 4.09093H13.4999C13.587 4.09093 13.6632 4.12414 13.7295 4.17047L16.3843 1.51613C16.608 1.292 16.8789 1.11581 17.1897 0.991974C17.3311 0.935635 17.4294 0.805008 17.4445 0.653594C17.4605 0.501797 17.3902 0.354372 17.2632 0.270458C16.9939 0.0934638 16.6831 0 16.3635 0H1.63636C0.734287 0.000115056 0 0.734018 0 1.63648V17.5909C0 17.7563 0.0998685 17.9057 0.252471 17.9688C0.302827 17.99 0.356328 18 0.409062 18C0.515335 18 0.619998 17.9585 0.698313 17.8801L4.66935 13.9091H16.3635C17.2656 13.9091 17.9999 13.1752 17.9999 12.2727V7.63216C17.9998 7.46678 17.9 7.31736 17.7474 7.25424ZM9.409 9.81822H4.49995C4.27383 9.81822 4.09085 9.63524 4.09085 9.40912C4.09085 9.183 4.27383 9.00002 4.49995 9.00002H9.409C9.63513 9.00002 9.8181 9.183 9.8181 9.40912C9.8181 9.63528 9.63513 9.81822 9.409 9.81822Z" fill="#272727"/>
<path d="M18.0709 1.63672C17.6578 1.63672 17.2543 1.80413 16.9635 2.09533L11.9841 7.07392C11.9266 7.13106 11.8882 7.20374 11.8723 7.28286L11.4632 9.32909C11.436 9.46332 11.4783 9.60196 11.575 9.69861C11.6525 9.77612 11.7572 9.81846 11.8643 9.81846C11.8907 9.81846 11.9178 9.81566 11.9442 9.81048L13.9888 9.40138C14.0687 9.38539 14.1414 9.34665 14.1981 9.28951L19.1783 4.31016C19.1783 4.31016 19.1783 4.31016 19.1783 4.30977C19.4699 4.01815 19.6369 3.61465 19.6369 3.20274C19.637 2.33906 18.9347 1.63672 18.0709 1.63672ZM17.4221 4.90937L16.3641 3.85135L16.9425 3.27289L18.0006 4.33098L17.4221 4.90937Z" fill="#272727"/>
</svg>
