<svg width="25" height="25" viewBox="0 0 25 25" fill="none" xmlns="http://www.w3.org/2000/svg">
<g clip-path="url(#clip0_592_535)">
<path d="M12.5001 14.2621C14.1114 14.2621 15.6006 13.808 16.792 13.0366C17.7149 12.4457 18.9161 12.5434 19.7266 13.2807C21.9776 15.3217 23.2569 18.2172 23.252 21.2592V22.5629C23.252 23.9106 22.1583 24.9994 20.8106 24.9994H4.18951C2.84185 24.9994 1.7481 23.9106 1.7481 22.5629V21.2592C1.73834 18.2221 3.01763 15.3217 5.26861 13.2856C6.07916 12.5483 7.28521 12.4506 8.20318 13.0414C9.39947 13.808 10.8838 14.2621 12.5001 14.2621Z" fill="white"/>
<path d="M12.5 12.0898C15.8385 12.0898 18.5449 9.38344 18.5449 6.04492C18.5449 2.7064 15.8385 0 12.5 0C9.16148 0 6.45508 2.7064 6.45508 6.04492C6.45508 9.38344 9.16148 12.0898 12.5 12.0898Z" fill="white"/>
</g>
<defs>
<clipPath id="clip0_592_535">
<rect width="25" height="25" fill="white"/>
</clipPath>
</defs>
</svg>
