<svg width="18" height="18" viewBox="0 0 18 18" fill="none" xmlns="http://www.w3.org/2000/svg">
<path d="M11.0674 1.71256H6.93555L8.71856 0.109529C8.87887 -0.0365096 9.12403 -0.0365096 9.28434 0.109529L11.0674 1.71256Z" fill="#272727"/>
<path d="M0.470703 7.52846L1.71368 6.41406V8.2314L0.470703 7.52846Z" fill="#272727"/>
<path d="M17.5301 7.52846L16.2871 8.2314V6.41406L17.5301 7.52846Z" fill="#272727"/>
<path d="M9.01863 12.3599L15.4307 8.71665V3.85615C15.4307 3.14601 14.855 2.57031 14.1448 2.57031H3.85811C3.14796 2.57031 2.57227 3.14601 2.57227 3.85615V8.71665L9.01863 12.3599ZM12.4304 8.5709H5.57256C5.33586 8.5709 5.14395 8.37899 5.14395 8.14229C5.14395 7.90559 5.33586 7.71368 5.57256 7.71368H12.4304C12.6671 7.71368 12.859 7.90559 12.859 8.14229C12.859 8.37899 12.6671 8.5709 12.4304 8.5709ZM12.4304 5.99922H5.57256C5.33586 5.99922 5.14395 5.80731 5.14395 5.57061C5.14395 5.33391 5.33586 5.14199 5.57256 5.14199H12.4304C12.6671 5.14199 12.859 5.33391 12.859 5.57061C12.859 5.80731 12.6671 5.99922 12.4304 5.99922Z" fill="#272727"/>
<path d="M18.0018 8.25V16.7108C18.0018 17.421 17.4261 17.9967 16.7159 17.9967H1.28584C0.575698 17.9967 0 17.421 0 16.7108V8.25L1.31154 8.98722L2.57168 9.72445L8.7523 13.2219L8.94944 13.3333L9.14659 13.2219C14.9072 9.95587 13.587 10.7017 15.3358 9.72445L16.6302 8.9958L18.0018 8.25Z" fill="#272727"/>
</svg>
